<?xml version="1.0" encoding="UTF-8"?>
<svg xmlns="http://www.w3.org/2000/svg" viewBox="0 0 240 240">
  <defs>
    <style>
      .purple { fill: #7F6DF2; }
    </style>
  </defs>
  <!-- Message-square bubble outline -->
  <path d="M210 150a20 20 0 0 1-20 20H70l-40 40V50a20 20 0 0 1 20-20h140a20 20 0 0 1 20 20z"
        fill="none" stroke="#7F6DF2" stroke-width="8" stroke-linecap="round" stroke-linejoin="round"/>
  <!-- Logo scaled and centered inside the bubble -->
  <g transform="translate(23, 1) scale(0.62)">
    <path class="purple" d="M171.61,132.5s.03.03.05.04c1.48,1.17.71,3.54-1.18,3.54H57.13c-1.63,0-2.94-1.37-2.94-3.06v-31.35c0-1.56,1.22-2.82,2.7-2.82h101.5v.83c.1,5.24.95,15.33,5.73,23.87,1.49,2.65,3.24,4.98,5.22,6.91.64.63,1.39,1.37,2.28,2.03Z"/>
    <path class="purple" d="M130.29,142.89c1.69,0,3.07,1.38,3.06,3.07l-.04,12.67-.26,61.48c0,1.61-1.31,2.91-2.92,2.91h-34.96c-1.61,0-2.91-1.3-2.92-2.91l-.24-48.6c0-15.47,12.49-28.62,27.96-28.62h10.32Z"/>
    <path class="purple" d="M242.55,199.16c-.07.21-.16.42-.25.64-1.2,2.63-4.02,4.33-7.19,4.33h-50.76c-3.14,0-5.97-1.7-7.19-4.33-.1-.21-.18-.42-.25-.64-.75-2.09-.61-4.23.41-6.11,6.38,3.11,12.51,4.05,18.24,2.79,5.65-1.27,9.07-4.27,12.15-6.98,1.4-1.22,2.84-2.49,4.47-3.51,2.59-1.63,5.48-2.67,8.83-3.2,6.85-1.06,13.85,1.68,18.28,7.17l1.98,2.45c1.74,2.18,2.19,4.8,1.27,7.39Z"/>
    <g>
      <path class="purple" d="M256.23,179.09l-21.68-26.93c-.49-.61-.76-1.38-.76-2.17l.13-32.65c0-.85-.69-1.54-1.54-1.54h-2.43c-5.27,0-9.54,4.26-9.56,9.53l-.09,25.49c-.01,3.33,1.12,6.56,3.21,9.15,4.8,5.95,13.25,16.46,13.25,16.46l8.94,11.13c6.52,8.08,1.75,19.64-7.82,21.62h-56.32c-9.58-1.98-14.34-13.54-7.85-21.62l2.05-2.58,20.4-25.31c.04-.06.09-.12.13-.17h.01c1.75-2.3,2.73-5.07,2.74-7.95,0-.29.02-4.02.03-6.75,0-1.03-.83-1.87-1.86-1.87h-9.93c-1.03,0-1.86.84-1.86,1.87v4.98c-.28,1.43-.89,2.78-1.82,3.94l-20.37,25.38c-5.94,7.38-7.61,17.1-4.42,25.9,3.24,9,10.75,15.48,20.01,17.41l1.09.23.53.13c.37.04.72.09,1.12.14.23.03.5.03.78.03h54.18c.46,0,.9-.03,1.36-.13v.13l2.68-.53c9.32-1.94,16.78-8.41,20.01-17.41,3.2-8.8,1.58-18.52-4.36-25.9Z"/>
      <path class="purple" d="M235.05,98.84c1.97,0,3.56,1.59,3.56,3.56v5.17c0,1.69-1.39,3.1-3.12,3.1h-35.2c-1.22,0-2.36-.59-3.05-1.59-1.06-1.53-2.22-2.91-3.47-4.13-1.31-1.27-2.72-2.37-4.19-3.33-1.27-.82-.67-2.79.84-2.79h44.62Z"/>
    </g>
    <circle class="purple" cx="193.23" cy="182.95" r="6.19"/>
    <path class="purple" d="M199.94,134.58h-.81c-3.72-.03-7.2-.4-10.43-1.06-.72-.14-1.44-.31-2.14-.5-4.54-1.15-8.42-2.96-11.55-5.42-.59-.44-1.17-.99-1.77-1.57-1.58-1.53-3.01-3.41-4.22-5.55-4.17-7.39-4.91-16.37-4.98-20.91h.61c1.78,0,3.48.07,5.04.23,1.32.13,2.52.27,3.68.45,1.97.31,4.25.82,6.58,1.58,3.01.99,6.13,2.43,8.87,4.56.68.51,1.33,1.06,1.95,1.67.82.79,1.58,1.67,2.29,2.62.81,1.05,1.54,2.19,2.21,3.41l.17.34c.07.16.16.3.24.48,3.57,7.13,4.19,15.42,4.25,19.67Z"/>
  </g>
</svg>
